<?xml version="1.0" encoding="utf-8"?>
<!-- Generator: Adobe Illustrator 16.0.0, SVG Export Plug-In . SVG Version: 6.00 Build 0)  -->
<!DOCTYPE svg PUBLIC "-//W3C//DTD SVG 1.1//EN" "http://www.w3.org/Graphics/SVG/1.1/DTD/svg11.dtd">
<svg version="1.1" id="Layer_1" xmlns="http://www.w3.org/2000/svg" xmlns:xlink="http://www.w3.org/1999/xlink" x="0px" y="0px"
	 width="307.388px" height="303.733px" viewBox="0 0 307.388 303.733" enable-background="new 0 0 307.388 303.733"
	 xml:space="preserve">
<g>
	<path fill-rule="evenodd" clip-rule="evenodd" fill="#090909" d="M138.978,0c10.667,0,21.334,0,32,0
		c2.875,1.417,6.07,1.409,9.119,2.051c49.993,10.526,88.909,35.955,111.26,83.29c12.915,27.354,19.19,55.877,14.459,86.331
		c-6.098,39.266-24.062,71.804-54.463,97.319c-23.762,19.942-52.001,29.868-82.201,33.889c-13.025,1.733-26.437,0.719-39.583-2.07
		c-44.923-9.529-80.794-31.863-104.292-72.293c-11.159-19.201-18.115-39.97-20.953-61.728c-1.764-13.522-1.144-27.522,1.809-41.141
		C19.627,63.418,56.508,22.903,117.857,4.891C124.833,2.842,132.412,3.632,138.978,0z M191.262,294.714
		c1.829,0.517,3.099,0.254,4.396-0.127c24.025-7.058,45.689-18.474,63.24-36.474c34.963-35.859,50.862-78.325,43.132-128.655
		c-4.454-28.999-15.688-54.855-35.612-76.536c-26.631-28.979-59.471-45.503-98.902-49.187c-25.54-2.385-47.604,3.574-65.746,22.546
		c-24.152,25.259-27.001,64.56-5.925,90.737c13.125,16.303,30.684,25.644,50.58,30.973c13.765,3.687,27.647,6.882,40.708,12.883
		c47.61,21.874,59.263,78.958,23.953,117.731C205.365,284.888,198.452,289.716,191.262,294.714z M155.584,239.135
		c7.29-0.031,12.487-5.223,12.528-12.514c0.042-7.624-5.143-12.725-12.829-12.619c-7.319,0.1-12.387,5.319-12.304,12.674
		C143.063,233.953,148.335,239.165,155.584,239.135z"/>
	<path fill-rule="evenodd" clip-rule="evenodd" fill="#00ACED" d="M191.262,294.714c7.189-4.998,14.103-9.826,19.823-16.108
		c35.31-38.773,23.657-95.857-23.953-117.731c-13.061-6.001-26.942-9.196-40.708-12.883c-19.896-5.329-37.455-14.67-50.58-30.973
		C74.768,90.841,77.618,51.54,101.77,26.281C119.911,7.31,141.975,1.351,167.515,3.735c39.432,3.684,72.271,20.207,98.902,49.187
		c19.924,21.681,31.158,47.537,35.612,76.536c7.73,50.33-8.169,92.796-43.132,128.655c-17.551,18-39.215,29.416-63.24,36.474
		C194.361,294.968,193.091,295.23,191.262,294.714z M155.639,89.199c7.437-0.017,12.507-5.088,12.532-12.537
		c0.027-7.561-5.307-12.774-12.951-12.661c-7.324,0.109-12.305,5.326-12.242,12.823C143.04,84.213,148.157,89.215,155.639,89.199z"
		/>
	<path fill-rule="evenodd" clip-rule="evenodd" fill="#00ACED" d="M155.584,239.135c-7.249,0.03-12.522-5.182-12.604-12.459
		c-0.083-7.354,4.984-12.574,12.304-12.674c7.687-0.105,12.871,4.995,12.829,12.619
		C168.072,233.912,162.875,239.104,155.584,239.135z"/>
	<path fill-rule="evenodd" clip-rule="evenodd" fill="#090909" d="M155.639,89.199c-7.482,0.016-12.599-4.986-12.661-12.375
		c-0.063-7.497,4.918-12.714,12.242-12.823c7.645-0.113,12.979,5.101,12.951,12.661C168.146,84.111,163.076,89.183,155.639,89.199z"
		/>
</g>
</svg>
